<svg version="1.1" id="Capa_1" xmlns="http://www.w3.org/2000/svg" xmlns:xlink="http://www.w3.org/1999/xlink" x="0px" y="0px" viewBox="0 0 497.261 497.261" style="enable-background:new 0 0 497.261 497.261;" xml:space="preserve">
<circle style="fill:#FDBF5E;" cx="160.582" cy="328.145" r="160.582"/>
<path style="fill:#FFFFFF;" d="M453.818,290.909H155.927c20.17,0,35.685,16.291,35.685,35.685c0,20.17-16.291,35.685-35.685,35.685 h297.891c20.17,0,35.685-16.291,35.685-35.685C489.503,307.2,473.988,290.909,453.818,290.909z"/>
<path style="fill:#193651;" d="M453.818,369.261H155.927c-3.879,0-6.982-3.103-6.982-6.982s3.103-6.982,6.982-6.982 c16.291,0,29.479-13.188,29.479-29.479c0-16.291-13.188-29.479-29.479-29.479c-3.879,0-6.982-3.103-6.982-6.982 s3.103-6.982,6.982-6.982h297.891c23.273,0,42.667,19.394,42.667,42.667C496.485,350.642,477.091,369.261,453.818,369.261z M186.958,356.073h266.861c16.291,0,29.479-13.188,29.479-29.479s-13.188-29.479-29.479-29.479H186.958 c6.982,7.758,11.636,17.842,11.636,29.479C198.594,338.23,193.939,348.315,186.958,356.073z"/>
<rect x="155.927" y="15.515" style="fill:#FFFFFF;" width="243.588" height="275.394"/>
<path style="fill:#193651;" d="M155.927,297.891c-1.552,0-3.103-0.776-4.655-1.552c-1.552-0.776-2.327-3.103-2.327-4.655V15.515 c0-3.879,3.103-6.982,6.982-6.982h243.588c1.552,0,3.103,0.776,4.655,2.327s2.327,3.103,2.327,4.655v275.394 c0,3.879-3.103,6.982-6.982,6.982L155.927,297.891z M162.909,22.497v262.206h230.4V22.497H162.909z"/>
<rect x="182.303" y="41.891" style="fill:#4FBF9F;" width="190.061" height="222.642"/>
<rect x="212.558" y="75.248" style="fill:#FFFFFF;" width="129.552" height="67.491"/>
<path style="fill:#193651;" d="M342.109,149.721H212.558c-3.879,0-6.982-3.103-6.982-6.982V75.248c0-3.879,3.103-6.982,6.982-6.982 h129.552c3.879,0,6.982,3.103,6.982,6.982v67.491C349.091,146.618,345.988,149.721,342.109,149.721z M219.539,136.533h116.364V82.23 H219.539V136.533z"/>
<path style="fill:#F16051;" d="M453.818,15.515h-55.079v275.394h55.079c20.17,0,35.685,16.291,35.685,35.685V51.2 C489.503,31.806,473.988,15.515,453.818,15.515z"/>
<path style="fill:#193651;" d="M453.818,9.309h-55.079c-3.879,0-6.982,3.103-6.982,6.982v275.394c0,3.879,3.103,6.982,6.982,6.982 h55.079c16.291,0,29.479,13.188,29.479,29.479c0,3.879,3.103,6.982,6.982,6.982c3.879,0,6.982-3.103,6.982-6.982V51.2 C496.485,27.927,477.091,9.309,453.818,9.309z M483.297,296.339c-7.758-6.982-17.842-11.636-29.479-11.636h-48.097V22.497h48.097 c16.291,0,29.479,13.188,29.479,29.479V296.339z"/>
<path style="fill:#FFFFFF;" d="M463.127,265.309c-3.103-0.776-6.206-0.776-9.309-0.776h-27.927V41.891h27.927 c5.43,0,9.309,3.879,9.309,9.309V265.309z"/>
<g>
    <path style="fill:#193651;" d="M441.406,333.576H191.612c-3.879,0-6.982-3.103-6.982-6.982s3.103-6.982,6.982-6.982h249.794 c3.879,0,6.982,3.103,6.982,6.982C447.612,330.473,445.285,333.576,441.406,333.576z"/>
    <rect x="235.83" y="102.4" style="fill:#193651;" width="13.188" height="13.188"/>
    <rect x="270.739" y="102.4" style="fill:#193651;" width="13.188" height="13.188"/>
    <rect x="306.424" y="102.4" style="fill:#193651;" width="13.188" height="13.188"/>
    <rect x="438.303" y="202.473" style="fill:#193651;" width="13.188" height="13.188"/>
    <rect x="438.303" y="86.885" style="fill:#193651;" width="13.188" height="13.188"/>
    <rect x="438.303" y="124.897" style="fill:#193651;" width="13.188" height="13.188"/>
    <rect x="438.303" y="163.685" style="fill:#193651;" width="13.188" height="13.188"/>
</g>
<path style="fill:#E1E6E9;" d="M235.83,281.6H86.109c-6.982,0-13.188,6.206-13.188,13.188v125.673 c0,6.982,6.206,13.188,13.188,13.188H235.83c6.982,0,13.188-6.206,13.188-13.188V294.788 C249.018,287.806,242.812,281.6,235.83,281.6z"/>
<path style="fill:#193651;" d="M235.83,440.63H86.109c-10.861,0-20.17-8.533-20.17-20.17V294.788c0-10.861,8.533-20.17,20.17-20.17 H235.83c10.861,0,20.17,8.533,20.17,20.17v125.673C255.224,432.097,246.691,440.63,235.83,440.63z M86.109,288.582 c-3.879,0-6.982,3.103-6.982,6.982v125.673c0,3.879,3.103,6.982,6.982,6.982H235.83c3.879,0,6.982-3.103,6.982-6.982V294.788 c0-3.879-3.103-6.982-6.982-6.982H86.109V288.582z"/>
<rect x="99.297" y="308.752" style="fill:#FFFFFF;" width="123.345" height="99.297"/>
<path style="fill:#E1E6E9;" d="M232.727,281.6h-26.376v-27.927c0-24.824-20.17-44.994-44.994-44.994s-44.994,20.17-44.994,44.994 V281.6H89.988v-27.927c0-39.564,31.806-71.37,71.37-71.37s71.37,31.806,71.37,71.37V281.6z"/>
<g>
    <path style="fill:#193651;" d="M160.582,176.097c-43.442,0-78.352,34.909-78.352,78.352v27.927c0,3.879,3.103,6.982,6.982,6.982 h26.376c3.879,0,6.982-3.103,6.982-6.982v-27.927c0-20.945,17.067-38.788,38.788-38.788s38.788,17.067,38.788,38.788v27.927 c0,3.879,3.103,6.982,6.982,6.982h25.6c3.879,0,6.982-3.103,6.982-6.982v-27.927C238.933,211.006,204.024,176.097,160.582,176.097z M225.745,275.394h-13.188v-20.945c0-28.703-23.273-51.976-51.976-51.976c-28.703,0-51.976,23.273-51.976,51.976v20.945H95.418 v-20.945c0-35.685,29.479-65.164,65.164-65.164s65.164,29.479,65.164,65.164V275.394z"/>
    <path style="fill:#193651;" d="M176.873,348.315c0-8.533-6.982-15.515-15.515-15.515s-15.515,6.982-15.515,15.515 c0,5.43,3.103,10.861,7.758,13.188l-3.879,21.721h24.048l-3.879-21.721C173.77,358.4,176.873,353.745,176.873,348.315z"/>
</g>
</svg>