<svg version="1.1" id="Capa_1" xmlns="http://www.w3.org/2000/svg" xmlns:xlink="http://www.w3.org/1999/xlink" 
     width="200" height="200" viewBox="0 0 496.485 496.485" xml:space="preserve">
    <circle cx="248.242" cy="248.242" r="248.242" fill="#9D2A9D"></circle> <!-- Фиолетовый круг -->
    <path d="M393.309,422.012V95.418c0-19.394-15.515-34.133-34.133-34.133h-224.97c-19.394,0-34.133,15.515-34.133,34.133v326.594L393.309,422.012z" fill="#E1E6E9"></path>
    <path d="M393.309,429.77H100.073c-4.655,0-7.758-3.103-7.758-7.758V95.418c0-23.273,18.618-41.891,41.891-41.891H358.4c23.273,0,41.891,18.618,41.891,41.891v326.594C401.067,426.667,397.188,429.77,393.309,429.77z M107.83,414.255h277.721V95.418c0-14.739-11.636-26.376-26.376-26.376h-224.97c-14.739,0-26.376,11.636-26.376,26.376V414.255z" fill="#193651"></path>
    <rect x="127.224" y="117.915" width="238.158" height="304.097" fill="#FFFFFF"></rect>
    <g>
        <path d="M279.273,99.297h-65.164c-4.655,0-7.758-3.103-7.758-7.758s3.103-7.758,7.758-7.758h65.164c4.655,0,7.758,3.103,7.758,7.758C287.03,96.194,283.152,99.297,279.273,99.297z" fill="#193651"></path>
        <path d="M185.406,99.297h-10.861c-4.655,0-7.758-3.103-7.758-7.758s3.103-7.758,7.758-7.758h10.861c4.655,0,7.758,3.103,7.758,7.758C193.164,96.194,190.061,99.297,185.406,99.297z" fill="#193651"></path>
    </g>
    <rect x="141.964" y="131.879" width="40.339" height="40.339" fill="#FDBF5E"></rect>
    <rect x="198.594" y="131.879" width="40.339" height="40.339" fill="#2EA2DB"></rect>
    <rect x="254.448" y="131.879" width="40.339" height="40.339" fill="#F16051"></rect>
    <rect x="310.303" y="131.879" width="40.339" height="40.339" fill="#E1E6E9"></rect>
    <rect x="141.964" y="186.958" width="40.339" height="40.339" fill="#F16051"></rect>
    <rect x="198.594" y="186.958" width="40.339" height="40.339" fill="#E1E6E9"></rect>
    <rect x="254.448" y="186.958" width="40.339" height="40.339" fill="#2EA2DB"></rect>
    <g>
        <rect x="310.303" y="186.958" width="40.339" height="40.339" fill="#FDBF5E"></rect>
        <rect x="141.964" y="242.036" width="40.339" height="40.339" fill="#FDBF5E"></rect>
    </g>
    <rect x="198.594" y="242.036" width="40.339" height="40.339" fill="#E1E6E9"></rect>
    <rect x="254.448" y="242.036" width="40.339" height="40.339" fill="#F16051"></rect>
    <rect x="310.303" y="242.036" width="40.339" height="40.339" fill="#2EA2DB"></rect>
    <polygon points="259.879,355.297 259.879,314.182 232.727,314.182 232.727,355.297 214.885,355.297 246.691,394.085 277.721,355.297" fill="#193651"></polygon>
    <rect x="38.012" y="432.873" width="39.564" height="45.77" fill="#FFFFFF"></rect>
    <path d="M77.576,485.624H38.012c-4.655,0-7.758-3.103-7.758-7.758v-45.77c0-4.655,3.103-7.758,7.758-7.758h39.564c4.655,0,7.758,3.103,7.758,7.758v45.77C85.333,482.521,81.455,485.624,77.576,485.624z M45.77,470.109h24.048v-30.255H45.77V470.109z" fill="#193651"></path>
    <polygon points="415.806,422.012 415.806,488.727 465.455,455.37" fill="#FDBF5E"></polygon>
    <path d="M415.806,496.485c-1.552,0-2.327,0-3.879-0.776c-2.327-1.551-3.879-3.879-3.879-6.982v-66.715c0-3.103,1.552-5.43,3.879-6.982c2.327-1.552,5.43-1.552,7.758,0l49.648,33.358c2.327,1.552,3.103,3.879,3.103,6.206s-1.552,4.655-3.103,6.206l-49.648,33.358C418.909,495.709,417.358,496.485,415.806,496.485z M423.564,436.752v37.236l27.927-18.618L423.564,436.752z" fill="#193651"></path>
    <rect x="77.576" y="422.012" width="338.23" height="66.715" fill="#FFFFFF"></rect>
    <path d="M415.806,496.485H77.576c-4.655,0-7.758-3.103-7.758-7.758v-66.715c0-4.655,3.103-7.758,7.758-7.758h338.23c4.655,0,7.758,3.103,7.758,7.758v66.715C423.564,493.382,419.685,496.485,415.806,496.485z M85.333,480.97h322.715v-51.2H85.333V480.97z" fill="#193651"></path>
    <rect x="98.521" y="442.958" width="297.115" height="24.824" fill="#4FBF9F"></rect>
    <g>
        <rect x="203.248" y="448.388" width="15.515" height="13.964" fill="#193651"></rect>
        <rect x="240.485" y="448.388" width="15.515" height="13.964" fill="#193651"></rect>
        <rect x="277.721" y="448.388" width="15.515" height="13.964" fill="#193651"></rect>
    </g>
</svg>
