<svg version="1.1" id="Capa_1" xmlns="http://www.w3.org/2000/svg" xmlns:xlink="http://www.w3.org/1999/xlink" x="0px" y="0px" viewBox="0 0 496.485 496.485" xml:space="preserve">
    <circle fill="#FDBF5E" cx="248.242" cy="248.242" r="248.242"></circle>
    <g>
        <rect fill="#193651" x="134.206" y="211.006" width="13.964" height="13.964"></rect>
        <rect fill="#193651" x="134.206" y="172.994" width="13.964" height="13.964"></rect>
        <rect fill="#193651" x="134.206" y="134.206" width="13.964" height="13.964"></rect>
    </g>
    <path fill="#FFFFFF" d="M93.091,290.133L93.091,290.133c-36.461,0-65.939,29.479-65.939,65.939v77.576 c0,19.394,16.291,35.685,35.685,35.685h61.285c19.394,0,35.685-16.291,35.685-35.685v-77.576 C159.03,319.612,129.552,290.133,93.091,290.133z"></path>
    <path fill="#193651" d="M123.345,477.091H62.836c-23.273,0-42.667-19.394-42.667-42.667v-77.576 c0-40.339,32.582-73.697,73.697-73.697s73.697,32.582,73.697,73.697v77.576C166.788,457.697,147.394,477.091,123.345,477.091z M93.091,297.115c-32.582,0-58.958,26.376-58.958,58.958v77.576c0,15.515,13.188,28.703,28.703,28.703h61.285 c15.515,0,28.703-13.188,28.703-28.703v-77.576C152.048,323.491,125.673,297.115,93.091,297.115z"></path>
    <path fill="#FFFFFF" d="M27.152,356.073v28.703h65.939v-95.418l0,0C56.63,290.133,27.152,319.612,27.152,356.073z"></path>
    <path fill="#193651" d="M93.091,392.533H27.152c-3.879,0-6.982-3.103-6.982-6.982v-28.703 c0-40.339,32.582-73.697,73.697-73.697c3.879,0,6.982,3.103,6.982,6.982v95.418C100.073,389.43,96.97,392.533,93.091,392.533z M34.133,378.57h51.976v-80.679c-29.479,3.879-51.976,28.703-51.976,58.958C34.133,356.849,34.133,378.57,34.133,378.57z"></path>
    <path fill="#E1E6E9" d="M159.03,385.552v-28.703c0-36.461-29.479-65.939-65.939-65.939l0,0v95.418h65.939V385.552z"></path>
    <path fill="#193651" d="M159.03,392.533H93.091c-3.879,0-6.982-3.103-6.982-6.982v-95.418c0-3.879,3.103-6.982,6.982-6.982 c40.339,0,73.697,32.582,73.697,73.697v28.703C166.788,389.43,162.909,392.533,159.03,392.533z M100.073,378.57h51.976v-21.721 c0-30.255-22.497-55.079-51.976-58.958L100.073,378.57z"></path>
    <path fill="#FFFFFF" d="M93.091,313.406c-7.758,0-13.964,6.206-13.964,13.964v20.945c0,7.758,6.206,13.964,13.964,13.964 s13.964-6.206,13.964-13.964V327.37C107.055,319.612,100.848,313.406,93.091,313.406z"></path>
    <g>
        <path fill="#193651" d="M93.091,306.424c-11.636,0-20.945,9.309-20.945,20.945v20.945c0,11.636,9.309,20.945,20.945,20.945 s20.945-9.309,20.945-20.945V327.37C114.036,315.733,104.727,306.424,93.091,306.424z M100.073,348.315 c0,3.879-3.103,6.982-6.982,6.982s-6.982-3.103-6.982-6.982V327.37c0-3.879,3.103-6.982,6.982-6.982s6.982,3.103,6.982,6.982 V348.315z"></path>
        <path fill="#193651" d="M93.091,297.115c-3.879,0-6.982-3.103-6.982-6.982V89.212c0-38.012,31.03-69.042,69.042-69.042 s69.042,31.03,69.042,69.042c0,3.879-3.103,6.982-6.982,6.982s-6.982-3.103-6.982-6.982c0-30.255-24.824-55.079-55.079-55.079 s-55.079,24.824-55.079,55.079v200.921C100.073,294.012,96.97,297.115,93.091,297.115z"></path>
    </g>
    <path fill="#4FBF9F" d="M184.63,141.188v220.315c0,7.758,6.206,13.964,13.964,13.964h256c7.758,0,13.964-6.206,13.964-13.964 V141.188H184.63z"></path>
    <path fill="#193651" d="M469.333,134.206H184.63c-3.879,0-6.982,3.103-6.982,6.982v220.315 c0,11.636,9.309,21.721,21.721,21.721h256c11.636,0,21.721-9.309,21.721-21.721V141.188 C476.315,137.309,473.212,134.206,469.333,134.206z M462.352,361.503c0,3.879-3.103,6.982-6.982,6.982h-256 c-3.879,0-6.982-3.103-6.982-6.982V148.17h270.739v213.333H462.352z"></path>
    <g>
        <rect x="213.333" y="169.891" width="227.297" height="177.648" fill="#FFFFFF"></rect>
        <path fill="#FFFFFF" d="M455.37,88.436h-256c-7.758,0-13.964,6.206-13.964,13.964v38.012h284.703V102.4 C469.333,94.642,463.127,88.436,455.37,88.436z"></path>
    </g>
    <g>
        <path fill="#193651" d="M469.333,148.17H184.63c-3.879,0-6.982-3.103-6.982-6.982v-38.012 c0-11.636,9.309-21.721,21.721-21.721h256c11.636,0,21.721,9.309,21.721,21.721v38.012 C476.315,145.067,473.212,148.17,469.333,148.17z M191.612,134.206h270.739v-31.03c0-3.879-3.103-6.982-6.982-6.982h-256 c-3.879,0-6.982,3.103-6.982,6.982v31.03H191.612z"></path>
        <rect fill="#193651" x="356.849" y="107.83" width="13.964" height="13.964"></rect>
        <rect fill="#193651" x="393.309" y="107.83" width="13.964" height="13.964"></rect>
        <rect fill="#193651" x="429.77" y="107.83" width="13.964" height="13.964"></rect>
    </g>
    <path fill="#E1E6E9" d="M280.048,256v46.545l0,0c30.255,11.636,64.388,11.636,94.642,0V256H280.048z"></path>
    <path fill="#CFD0D1" d="M415.03,244.364l-88.436-33.358l-88.436,33.358l14.739,5.43v37.236c0,2.327,1.552,3.879,3.879,3.879 s3.879-1.552,3.879-3.879v-34.133l66.715,24.824L415.03,244.364z"></path>
    <ellipse fill="#FFFFFF" cx="327.37" cy="244.364" rx="14.739" ry="6.206"></ellipse>
</svg>